<?xml version="1.0" encoding="UTF-8"?>
<svg xmlns="http://www.w3.org/2000/svg" id="Layer_1" viewBox="0 0 489.27 328.07">
  <defs>
    <style>.cls-1{fill:#1e3a5f;}</style>
  </defs>
  <path class="cls-1" d="m277.52,294.4c-.92-.75-2.34-1.27-3.92-1.13-1.49.13-2.78.79-3.63,1.8-.68.79-1.34,2.12-1.17,4.02.14,1.57.77,2.79,1.92,3.72,1.2.96,2.47,1.21,3.81,1.09,1.75-.15,2.93-.91,3.68-1.8.61-.7,1.33-1.99,1.15-3.97-.16-1.78-1-3.03-1.84-3.73Z"></path>
  <path class="cls-1" d="m244.63,0C109.52,0,0,73.44,0,164.04s109.52,164.04,244.63,164.04,244.63-73.44,244.63-164.04S379.74,0,244.63,0Zm104.69,43.58c.96-2.54,2.84-4.26,4.82-5.11,1.95-.84,4.39-.99,6.9-.03,1.07.4,2.21,1.09,3.53,2.36l-1.64,4.3c-.49-1.18-1.4-2.5-3.12-3.15-1.35-.51-2.61-.49-3.77,0-1.22.53-2.35,1.6-2.94,3.14-.63,1.67-.41,3.11.05,4.09.21.47.98,1.92,2.97,2.68.97.37,2.37.6,4.33-.26l-1.63,4.28c-1.7.18-2.92-.11-3.88-.48-2.97-1.13-4.59-2.91-5.44-4.75-.92-1.95-1.17-4.48-.19-7.07Zm-12.73-13.01l3.81,1.14-4.92,16.52-3.81-1.14,4.92-16.52Zm-22.4-5.68l11.19,2.59-.76,3.28-3.65-.85-3.13,13.53-3.88-.9,3.13-13.53-3.65-.85.76-3.28Zm-27.34,5.67l1.54-10.09,3.93.6-1.52,9.99c-.11.74-.25,2,.46,3,.58.85,1.5,1.14,2.24,1.26.74.11,1.71.11,2.51-.53.98-.74,1.22-1.98,1.33-2.73l1.52-9.99,3.94.6-1.54,10.09c-.25,1.64-.76,3.62-2.72,5.1-1.89,1.44-3.82,1.4-5.61,1.13-1.79-.27-3.64-.82-5.02-2.75-1.42-2-1.32-4.05-1.07-5.68Zm-20.86-12.21l9.71.76-.26,3.35-5.74-.45-.26,3.32,5.46.43-.26,3.35-5.46-.43-.3,3.81,5.74.45-.26,3.35-9.71-.76,1.34-17.18Zm-24.26-.74l6.07.07c1.5.02,3.15.24,4.5,1.47,1.46,1.31,1.65,3.01,1.64,4.2-.02,2.17-.86,3.37-1.52,4.04-1.38,1.38-3.19,1.49-4.41,1.48l-2.43-.03-.07,6.04-3.98-.04.18-17.23Zm-21.88.81l3.64-.22,7.83,16.79-4.13.25-1.49-3.17-6.5.4-1.12,3.33-4.13.25,5.89-17.63Zm-24.1,2.46c2.18-.3,3.63.23,4.56.88.81.59,1.75,1.71,2.01,3.61.15,1.08.1,2.44-.85,3.66-.51.64-1.28,1.27-2.2,1.64l6.22,6.26-4.81.67-5.54-6.09.93,6.73-3.94.55-2.37-17.07,5.99-.83Zm-18.54,3.05l.7,3.29-5.64,1.2.7,3.26,5.36-1.15.7,3.29-5.36,1.15.8,3.74,5.64-1.2.7,3.29-9.53,2.04-3.6-16.86,9.53-2.04Zm-32.82,8.33l1.89,6.29,6.59-1.97-1.88-6.29,3.81-1.14,4.94,16.52-3.81,1.14-2.1-7.01-6.59,1.97,2.1,7.01-3.81,1.14-4.95-16.52,3.81-1.14Zm-14.82,5.03l1.24,3.12-3.48,1.39,5.12,12.89-3.7,1.47-5.13-12.9-3.48,1.38-1.24-3.12,10.66-4.24Zm31.06,249.32c.31.48.84.78,1.86,1.49l1.13.79c.65.46,1.46,1.07,1.95,1.86.74,1.18.68,2.44.43,3.42-.44,1.73-1.43,3.08-2.54,3.75-1.88,1.17-4.07.77-5.17.49-1.2-.31-2.21-.75-3.12-1.55-.74-.64-1.52-1.67-1.98-2.46l2.71-2.24c.32.54.84,1.29,1.22,1.68.55.57,1.17.94,1.95,1.14.5.13,1.23.21,1.9-.13.4-.19.79-.57.95-1.2.14-.55,0-.96-.27-1.35-.35-.49-1.28-1.13-1.72-1.43l-1.25-.83c-.7-.47-1.52-1.06-1.99-1.93-.64-1.15-.46-2.36-.26-3.16.38-1.48,1.15-2.61,2.42-3.38,1.48-.9,2.97-.87,4.52-.47,1.15.3,2.95.97,4.53,2.93l-2.45,2.36c-.96-1.45-2.02-1.8-2.49-1.92-.53-.13-1.2-.23-1.78.16-.31.19-.59.51-.7.94-.1.4-.06.73.14,1.02Zm31.89,6.16c-.71-1.07-1.85-2.18-3.66-2.5-1.43-.25-2.65.01-3.69.72-1.1.75-2,2.01-2.29,3.64-.3,1.76.19,3.13.83,4,.3.42,1.33,1.7,3.42,2.06,1.02.18,2.44.13,4.2-1.08l-.78,4.51c-1.64.5-2.89.44-3.91.27-3.13-.54-5.06-1.98-6.24-3.63-1.27-1.74-2-4.18-1.53-6.9.46-2.68,1.97-4.72,3.76-5.94,1.75-1.19,4.12-1.8,6.77-1.35,1.12.19,2.38.65,3.91,1.65l-.79,4.54Zm26.76,15.06l-3.97-.35.65-7.29-6.85-.61-.65,7.29-3.96-.35,1.52-17.18,3.96.35-.58,6.54,6.85.61.58-6.54,3.96.35-1.52,17.17Zm30.01-1.34c-1.62,1.53-3.8,2.49-6.69,2.46-3.23-.04-5.41-1.35-6.69-2.6-1.64-1.57-2.64-3.9-2.62-6.44.03-2.48,1.17-4.97,2.73-6.51,1.18-1.15,3.33-2.5,6.77-2.46,2.69.03,4.93.88,6.64,2.57,1.61,1.6,2.64,3.88,2.62,6.54-.03,2.3-.88,4.64-2.76,6.43Zm32.04-2.05c-1.46,1.69-3.54,2.86-6.42,3.11-3.22.29-5.52-.81-6.92-1.93-1.79-1.4-3.02-3.63-3.25-6.15-.22-2.47.67-5.07,2.07-6.75,1.05-1.26,3.07-2.82,6.5-3.12,2.68-.24,4.99.39,6.86,1.91,1.76,1.43,3.02,3.6,3.26,6.25.2,2.29-.41,4.71-2.11,6.68Zm16.6-.1l-2.89-16.99,3.92-.67,2.33,13.68,5.27-.9.56,3.31-9.19,1.56Zm31.26-7.92c-1.1,1.92-3.22,2.6-4.32,2.88-1.2.3-2.3.38-3.48.12-.96-.22-2.13-.75-2.91-1.23l1.33-3.25c.53.32,1.35.73,1.87.9.75.24,1.48.27,2.25.08.5-.12,1.18-.4,1.62-1.01.26-.36.42-.88.27-1.5-.14-.55-.45-.85-.87-1.06-.55-.27-1.67-.39-2.19-.44l-1.5-.14c-.85-.09-1.83-.21-2.66-.75-1.11-.71-1.52-1.86-1.72-2.66-.36-1.48-.22-2.84.52-4.12.88-1.49,2.21-2.17,3.76-2.55,1.16-.28,3.06-.54,5.38.43l-1.04,3.24c-1.53-.82-2.63-.63-3.11-.51-.52.13-1.16.37-1.49.98-.19.31-.27.73-.17,1.16.1.4.3.67.6.84.49.28,1.11.29,2.34.43l1.37.17c.8.1,1.79.25,2.6.72,1.21.69,1.75,1.83,1.99,2.81.43,1.73.2,3.38-.46,4.5Zm-85.63-22.31c-106.53,0-192.89-50.22-192.89-112.17S137.02,49.76,243.55,49.76s192.88,50.22,192.88,112.18-86.36,112.17-192.88,112.17Z"></path>
  <path class="cls-1" d="m242.72,294.62c-1.5-.02-2.85.51-3.79,1.43-.76.72-1.54,1.97-1.56,3.88-.02,1.58.48,2.85,1.53,3.89,1.1,1.07,2.33,1.45,3.68,1.46,1.76.02,3-.62,3.84-1.43.68-.64,1.52-1.84,1.54-3.83.02-1.78-.69-3.11-1.46-3.89-.84-.84-2.2-1.49-3.78-1.51Z"></path>
  <path class="cls-1" d="m195.67,28.8c.72-.1,1.68-.31,2.25-1.07.24-.32.53-.91.41-1.75-.13-.97-.67-1.42-1.03-1.63-.71-.4-1.74-.31-2.25-.23l-.92.13.65,4.68.9-.12Z"></path>
  <path class="cls-1" d="m249.19,24.98c.37-.36.66-.95.66-1.7,0-.72-.24-1.32-.63-1.69-.59-.57-1.44-.66-2.21-.67l-1.34-.02-.05,4.68,1.42.02c.54,0,1.5-.01,2.15-.62Z"></path>
  <polygon class="cls-1" points="221.96 23.45 220.17 29.36 224.43 29.1 221.96 23.45"></polygon>
  <g>
    <path class="cls-1" d="m148.49,178.48h-37.46l-10.55,24.8h-10.82l40.5-92.2,39.44,92.2h-10.82l-10.29-24.8Zm-3.83-9.23l-14.77-35.22-15.04,35.22h29.81Z"></path>
    <path class="cls-1" d="m184.33,116.95v44.63h15.32v7.5h-23.29v-52.13h7.97Z"></path>
    <path class="cls-1" d="m229.74,116.95c3.21,0,7.66.31,11.41,2.81,4.38,2.89,6.49,7.89,6.49,12.66,0,3.05-.78,7.74-5.08,11.41-4.14,3.52-8.91,4.07-12.74,4.07h-3.6v21.18h-7.97v-52.13h11.49Zm-3.52,23.6h3.6c6.88,0,10.16-3.36,10.16-8.21,0-2.89-1.17-8.05-10.24-8.05h-3.52v16.26Z"></path>
    <path class="cls-1" d="m273.12,116.95v52.13h-7.97v-52.13h7.97Z"></path>
    <path class="cls-1" d="m296.57,169.08v-55.65l37.83,39.63v-36.11h7.97v55.34l-37.83-39.63v36.42h-7.97Z"></path>
    <path class="cls-1" d="m393.33,124.46h-20.79v13.21h20.16v7.5h-20.16v16.41h20.79v7.5h-28.76v-52.13h28.76v7.5Z"></path>
    <path class="cls-1" d="m194.7,198.15h-9.86l-2.16,5.13h-5.17l10.51-24.43h3.74l10.22,24.43h-5.13l-2.16-5.13Zm-1.39-3.88l-3.48-8.79-3.48,8.79h6.96Z"></path>
    <path class="cls-1" d="m230.61,202.4c-1.47.77-3.41,1.43-6.04,1.43-4.29,0-6.89-1.47-8.94-3.41-2.82-2.71-3.92-5.75-3.92-9.34,0-4.43,1.83-7.62,3.92-9.56,2.45-2.31,5.49-3.22,8.97-3.22,1.72,0,3.77.29,6.01,1.5v5.57c-2.24-2.56-5.02-2.75-5.9-2.75-4.91,0-8.1,4.03-8.1,8.54,0,5.42,4.18,8.35,8.28,8.35,2.27,0,4.29-.99,5.72-2.68v5.57Z"></path>
    <path class="cls-1" d="m258.27,198.15h-9.86l-2.16,5.13h-5.17l10.51-24.43h3.74l10.22,24.43h-5.13l-2.16-5.13Zm-1.39-3.88l-3.48-8.79-3.48,8.79h6.96Z"></path>
    <path class="cls-1" d="m283.58,178.84c3.41,0,6.37.37,9.09,2.38,2.97,2.23,4.69,5.79,4.69,9.86s-1.69,7.58-4.91,9.85c-2.86,2.02-5.53,2.34-8.94,2.34h-6.3v-24.43h6.37Zm-1.61,20.33h1.47c1.21,0,3.85-.07,5.97-1.61,1.94-1.39,3.04-3.88,3.04-6.48s-1.06-5.06-3.01-6.52c-1.98-1.47-4.39-1.61-6.01-1.61h-1.47v16.23Z"></path>
    <path class="cls-1" d="m324.1,182.95h-8.79v5.46h8.43v4.1h-8.43v6.67h8.79v4.1h-13.55v-24.43h13.55v4.1Z"></path>
    <path class="cls-1" d="m340.81,178.84h3.44l6.48,15.53,6.78-15.53h3.44l4.1,24.43h-4.84l-2.2-15.06-6.56,15.06h-1.61l-6.26-15.06-2.49,15.06h-4.84l4.54-24.43Z"></path>
    <path class="cls-1" d="m381.59,192.11l-8.39-13.26h5.64l5.24,8.5,5.24-8.5h5.64l-8.61,13.26v11.17h-4.76v-11.17Z"></path>
  </g>
</svg>
